<svg xmlns="http://www.w3.org/2000/svg" aria-hidden="true" style="position:absolute;width:0;height:0;overflow:hidden">
  <defs>
    <symbol id="search" viewBox="0 0 32 32">
     <path d="M31.008 27.231l-7.58-6.447c-0.784-0.705-1.622-1.029-2.299-0.998 1.789-2.096 2.87-4.815 2.87-7.787 0-6.627-5.373-12-12-12s-12 5.373-12 12 5.373 12 12 12c2.972 0 5.691-1.081 7.787-2.87-0.031 0.677 0.293 1.515 0.998 2.299l6.447 7.58c1.104 1.226 2.907 1.33 4.007 0.23s0.997-2.903-0.23-4.007zM12 20c-4.418 0-8-3.582-8-8s3.582-8 8-8 8 3.582 8 8-3.582 8-8 8z"></path>
    </symbol>
    <symbol id="d-square" viewBox="0 0 32 32">
      <path d="M20 30.333h-8C4.76 30.333 1.667 27.24 1.667 20v-8C1.667 4.76 4.76 1.667 12 1.667h8c7.24 0 10.333 3.093 10.333 10.333v8c0 7.24-3.093 10.333-10.333 10.333zM12 3.667c-6.147 0-8.333 2.187-8.333 8.333v8c0 6.147 2.187 8.333 8.333 8.333h8c6.147 0 8.333-2.187 8.333-8.333v-8c0-6.147-2.187-8.333-8.333-8.333h-8z"/>
      <path d="M16.001 17.44a1 1 0 0 1-.507-.133l-7.067-4.08a.99.99 0 0 1-.36-1.36.99.99 0 0 1 1.36-.36l6.56 3.8 6.52-3.773c.48-.28 1.093-.107 1.36.36s.107 1.093-.36 1.36l-7.013 4.053a1.05 1.05 0 0 1-.493.133z"/>
      <path d="M16 24.693c-.547 0-1-.453-1-1V16.44c0-.547.453-1 1-1s1 .453 1 1v7.253c0 .547-.453 1-1 1z"/>
      <path d="M16 25c-.773 0-1.533-.173-2.147-.507L9.586 22.12c-1.28-.707-2.267-2.4-2.267-3.867v-4.52c0-1.453 1-3.147 2.267-3.867l4.267-2.373c1.227-.68 3.067-.68 4.293 0l4.267 2.373c1.28.707 2.267 2.4 2.267 3.867v4.52c0 1.453-1 3.147-2.267 3.867l-4.267 2.373c-.613.347-1.373.507-2.147.507zm0-16c-.44 0-.867.08-1.173.253l-4.267 2.373c-.653.36-1.24 1.373-1.24 2.107v4.52c0 .747.587 1.747 1.24 2.107l4.267 2.373c.613.347 1.733.347 2.347 0l4.267-2.373c.653-.36 1.24-1.373 1.24-2.107v-4.52c0-.747-.587-1.747-1.24-2.107l-4.267-2.373C16.867 9.08 16.441 9 16.001 9z"/>
    </symbol>
    <symbol id="discount-shape" viewBox="0 0 32 32">
      <path d="M16 30.334a3.06 3.06 0 0 1-2.213-.92l-2.027-2.027c-.16-.16-.587-.333-.8-.333H8.08a3.13 3.13 0 0 1-3.133-3.133v-2.88c0-.213-.173-.64-.333-.8l-2.027-2.027c-.587-.587-.92-1.373-.92-2.213s.32-1.627.92-2.213l2.027-2.027c.16-.16.333-.587.333-.8v-2.88A3.13 3.13 0 0 1 8.08 4.948h2.88c.213 0 .64-.173.8-.333l2.027-2.027c1.173-1.173 3.253-1.173 4.427 0l2.027 2.027c.16.16.587.333.8.333h2.88a3.13 3.13 0 0 1 3.133 3.133v2.88c0 .213.173.64.333.8l2.027 2.027c.587.587.92 1.373.92 2.213s-.32 1.627-.92 2.213l-2.027 2.027c-.16.16-.333.587-.333.8v2.88a3.13 3.13 0 0 1-3.133 3.133h-2.88c-.213 0-.64.173-.8.333l-2.027 2.027c-.587.6-1.373.92-2.213.92zM6.027 18.827c.533.533.92 1.467.92 2.213v2.88c0 .627.507 1.133 1.133 1.133h2.88c.747 0 1.68.387 2.213.92L15.2 28a1.16 1.16 0 0 0 1.6 0l2.027-2.027c.533-.533 1.467-.92 2.213-.92h2.88c.627 0 1.133-.507 1.133-1.133v-2.88c0-.747.387-1.68.92-2.213L28 16.8c.213-.213.333-.493.333-.8s-.12-.587-.333-.8l-2.027-2.027c-.533-.533-.92-1.467-.92-2.213V8.08c0-.627-.507-1.133-1.133-1.133h-2.88c-.747 0-1.68-.387-2.213-.92L16.8 4a1.16 1.16 0 0 0-1.6 0l-2.027 2.027c-.533.533-1.467.92-2.213.92H8.08c-.627 0-1.133.507-1.133 1.133v2.88c0 .747-.387 1.68-.92 2.213L4 15.2c-.213.213-.333.493-.333.8s.12.587.333.8l2.027 2.027z"/>
      <path d="M20 21.333c-.747 0-1.347-.6-1.347-1.333s.6-1.333 1.333-1.333 1.333.6 1.333 1.333-.587 1.333-1.32 1.333zM12.013 13.333c-.747 0-1.347-.6-1.347-1.333s.6-1.333 1.333-1.333 1.333.6 1.333 1.333-.587 1.333-1.32 1.333zM11.999 20.999a.99.99 0 0 1-.707-.293 1.005 1.005 0 0 1 0-1.413l8-8c.387-.387 1.027-.387 1.413 0s.387 1.027 0 1.413l-8 8c-.2.2-.453.293-.707.293z"/>
    </symbol>
    <symbol id="message-question" viewBox="0 0 32 32">
      <path d="M10.667 29.76a2.35 2.35 0 0 1-1.107-.28c-.76-.4-1.227-1.2-1.227-2.053v-1.893c-4.027-.413-6.667-3.373-6.667-7.613v-8c0-4.587 3.08-7.667 7.667-7.667h13.333c4.587 0 7.667 3.08 7.667 7.667v8c0 4.587-3.08 7.667-7.667 7.667h-5.027l-5.68 3.787c-.387.253-.84.387-1.293.387zM9.333 4.24c-3.44 0-5.667 2.227-5.667 5.667v8c0 3.44 2.227 5.667 5.667 5.667.547 0 1 .453 1 1v2.84c0 .173.107.253.173.293s.2.08.347-.013l5.933-3.947c.16-.107.36-.173.56-.173h5.333c3.44 0 5.667-2.227 5.667-5.667v-8c0-3.44-2.227-5.667-5.667-5.667H9.332z"/>
      <path d="M16 16.147c-.547 0-1-.453-1-1v-.28c0-1.547 1.133-2.307 1.56-2.6.493-.333.653-.56.653-.907 0-.667-.547-1.213-1.213-1.213s-1.213.547-1.213 1.213c0 .547-.453 1-1 1s-1-.453-1-1c0-1.773 1.44-3.213 3.213-3.213s3.213 1.44 3.213 3.213c0 1.52-1.12 2.28-1.533 2.56-.52.347-.68.573-.68.947v.28c0 .56-.453 1-1 1zM16 19.467c-.56 0-1-.453-1-1s.453-1 1-1c.547 0 1 .453 1 1s-.44 1-1 1z"/>
    </symbol>
    <symbol id="setting-1" viewBox="0 0 32 32">
      <path d="M16 30.173c-.893 0-1.8-.2-2.507-.613L6.16 25.333c-2.987-2.013-3.173-2.32-3.173-5.48v-7.707c0-3.16.173-3.467 3.107-5.453l7.387-4.267c1.4-.813 3.6-.813 5 0l7.36 4.24c2.987 2.013 3.173 2.32 3.173 5.48v7.693c0 3.16-.173 3.467-3.107 5.453l-7.387 4.267c-.72.413-1.627.613-2.52.613zm0-26.347c-.56 0-1.107.107-1.493.333l-7.333 4.24c-2.173 1.467-2.173 1.467-2.173 3.747v7.693c0 2.28 0 2.28 2.227 3.787l7.28 4.2c.787.453 2.213.453 3 0l7.333-4.24c2.16-1.467 2.16-1.467 2.16-3.747v-7.693c0-2.28 0-2.28-2.227-3.787l-7.28-4.2c-.387-.227-.933-.333-1.493-.333z"/>
      <path d="M16 21c-2.76 0-5-2.24-5-5s2.24-5 5-5 5 2.24 5 5-2.24 5-5 5zm0-8c-1.653 0-3 1.347-3 3s1.347 3 3 3 3-1.347 3-3-1.347-3-3-3z"/>
    </symbol>
    <symbol id="user-square" viewBox="0 0 32 32">
      <path d="M20.001 30.333h-8c-1.76 0-3.227-.173-4.467-.547a1.022 1.022 0 0 1-.72-1.04c.333-3.987 4.373-7.12 9.187-7.12s8.84 3.12 9.187 7.12a.983.983 0 0 1-.72 1.04c-1.24.373-2.707.547-4.467.547zM8.961 28.08c.88.173 1.88.253 3.04.253h8c1.16 0 2.16-.08 3.04-.253-.707-2.56-3.627-4.453-7.04-4.453s-6.333 1.893-7.04 4.453z"/>
      <path stroke-linecap="round" stroke-linejoin="round" stroke-width="2" d="M20 2.667h-8c-6.667 0-9.333 2.667-9.333 9.333v8c0 5.04 1.52 7.8 5.147 8.827.293-3.467 3.853-6.2 8.187-6.2s7.893 2.733 8.187 6.2C27.815 27.8 29.335 25.04 29.335 20v-8c0-6.667-2.667-9.333-9.333-9.333zm-4 16.226c-2.64 0-4.773-2.147-4.773-4.787S13.36 9.333 16 9.333c2.64 0 4.773 2.133 4.773 4.773S18.64 18.893 16 18.893z"/>
      <path d="M16 19.893c-3.187 0-5.773-2.6-5.773-5.787S12.814 8.333 16 8.333c3.187 0 5.773 2.587 5.773 5.773S19.186 19.893 16 19.893zm0-9.56a3.778 3.778 0 0 0-3.773 3.773c0 2.093 1.693 3.787 3.773 3.787a3.78 3.78 0 0 0 0-7.56z"/>
    </symbol>
    <symbol id="v01" viewBox="0 0 32 32">
      <path d="m5.421 20.668 2.936-8.452h2.278L6.682 22.588h-2.56L.188 12.216h2.296l2.936 8.452zm7.514 2.052c-.389 0-.715-.132-.979-.395s-.395-.59-.395-.979.132-.715.395-.979.59-.395.979-.395c.376 0 .696.132.96.395s.395.59.395.979-.132.715-.395.979-.584.395-.96.395zm3.204-7.172c0-2.171.364-3.865 1.092-5.082.74-1.23 2.008-1.845 3.802-1.845s3.056.615 3.784 1.845c.741 1.217 1.111 2.911 1.111 5.082 0 2.196-.37 3.915-1.111 5.158-.728 1.23-1.989 1.845-3.784 1.845s-3.062-.615-3.802-1.845c-.728-1.242-1.092-2.962-1.092-5.158zm7.68 0c0-1.016-.069-1.876-.207-2.579-.125-.703-.389-1.274-.791-1.713-.401-.452-.998-.678-1.788-.678s-1.387.226-1.788.678c-.401.439-.671 1.01-.809 1.713-.125.703-.188 1.562-.188 2.579 0 1.054.063 1.939.188 2.654s.389 1.293.791 1.732c.414.439 1.016.659 1.807.659s1.387-.22 1.788-.659c.414-.439.684-1.016.809-1.732s.188-1.6.188-2.654zm3.908-4.724V8.866h3.915v13.722h-2.165V10.823h-1.751z"/>
    </symbol>
    <symbol id="wallet-money" viewBox="0 0 32 32">
    <path d="M29 4h-26c-1.65 0-3 1.35-3 3v18c0 1.65 1.35 3 3 3h26c1.65 0 3-1.35 3-3v-18c0-1.65-1.35-3-3-3zM3 6h26c0.542 0 1 0.458 1 1v3h-28v-3c0-0.542 0.458-1 1-1zM29 26h-26c-0.542 0-1-0.458-1-1v-9h28v9c0 0.542-0.458 1-1 1zM4 20h2v4h-2zM8 20h2v4h-2zM12 20h2v4h-2z"></path>
    </symbol>
    <symbol id="menu" viewBox="0 0 32 32">
     <path d="M2 6h28v6h-28zM2 14h28v6h-28zM2 22h28v6h-28z"></path>
    </symbol>
    <symbol id="cross" viewBox="0 0 32 32">
      <path d="M31.708 25.708c-0-0-0-0-0-0l-9.708-9.708 9.708-9.708c0-0 0-0 0-0 0.105-0.105 0.18-0.227 0.229-0.357 0.133-0.356 0.057-0.771-0.229-1.057l-4.586-4.586c-0.286-0.286-0.702-0.361-1.057-0.229-0.13 0.048-0.252 0.124-0.357 0.228 0 0-0 0-0 0l-9.708 9.708-9.708-9.708c-0-0-0-0-0-0-0.105-0.104-0.227-0.18-0.357-0.228-0.356-0.133-0.771-0.057-1.057 0.229l-4.586 4.586c-0.286 0.286-0.361 0.702-0.229 1.057 0.049 0.13 0.124 0.252 0.229 0.357 0 0 0 0 0 0l9.708 9.708-9.708 9.708c-0 0-0 0-0 0-0.104 0.105-0.18 0.227-0.229 0.357-0.133 0.355-0.057 0.771 0.229 1.057l4.586 4.586c0.286 0.286 0.702 0.361 1.057 0.229 0.13-0.049 0.252-0.124 0.357-0.229 0-0 0-0 0-0l9.708-9.708 9.708 9.708c0 0 0 0 0 0 0.105 0.105 0.227 0.18 0.357 0.229 0.356 0.133 0.771 0.057 1.057-0.229l4.586-4.586c0.286-0.286 0.362-0.702 0.229-1.057-0.049-0.13-0.124-0.252-0.229-0.357z"></path>
    </symbol>
    <symbol id="key" viewBox="0 0 32 32">
    <path d="M22 0c-5.523 0-10 4.477-10 10 0 0.626 0.058 1.238 0.168 1.832l-12.168 12.168v6c0 1.105 0.895 2 2 2h2v-2h4v-4h4v-4h4l2.595-2.595c1.063 0.385 2.209 0.595 3.405 0.595 5.523 0 10-4.477 10-10s-4.477-10-10-10zM24.996 10.004c-1.657 0-3-1.343-3-3s1.343-3 3-3 3 1.343 3 3-1.343 3-3 3z"></path>
    </symbol>
    <symbol id="arrow" viewBox="0 0 32 32">
     <path d="M19.414 27.414l10-10c0.781-0.781 0.781-2.047 0-2.828l-10-10c-0.781-0.781-2.047-0.781-2.828 0s-0.781 2.047 0 2.828l6.586 6.586h-19.172c-1.105 0-2 0.895-2 2s0.895 2 2 2h19.172l-6.586 6.586c-0.39 0.39-0.586 0.902-0.586 1.414s0.195 1.024 0.586 1.414c0.781 0.781 2.047 0.781 2.828 0z"></path>
    </symbol>
  </defs>
</svg>